HIERARCHY
ROOT hip
{
  OFFSET 0 0 0
  CHANNELS 6 Xposition Yposition Zposition Zrotation Yrotation Xrotation
  JOINT abdomen
  {
    OFFSET 0 20.6881 -0.73152
    CHANNELS 3 Zrotation Xrotation Yrotation
    JOINT chest
    {
      OFFSET 0 11.7043 -0.48768
      CHANNELS 3 Zrotation Xrotation Yrotation
      JOINT neck
      {
        OFFSET 0 22.1894 -2.19456
        CHANNELS 3 Zrotation Xrotation Yrotation
        JOINT head
        {
          OFFSET -0.24384 7.07133 1.2192
          CHANNELS 3 Zrotation Xrotation Yrotation
          JOINT leftEye
          {
            OFFSET 4.14528 8.04674 8.04672
            CHANNELS 3 Zrotation Xrotation Yrotation
            End Site
            {
              OFFSET 1 0 0
            }
          }
          JOINT rightEye
          {
            OFFSET -3.6576 8.04674 8.04672
            CHANNELS 3 Zrotation Xrotation Yrotation
            End Site
            {
              OFFSET 1 0 0
            }
          }
        }
      }
      JOINT rCollar
      {
        OFFSET -2.68224 19.2634 -4.8768
        CHANNELS 3 Zrotation Xrotation Yrotation
        JOINT rShldr
        {
          OFFSET -8.77824 -1.95073 1.46304
          CHANNELS 3 Zrotation Xrotation Yrotation
          JOINT rForeArm
          {
            OFFSET -28.1742 -1.7115 0.48768
            CHANNELS 3 Zrotation Xrotation Yrotation
            JOINT rHand
            {
              OFFSET -22.5879 0.773209 7.07136
              CHANNELS 3 Zrotation Xrotation Yrotation
              JOINT rThumb1
              {
                OFFSET -1.2192 -0.487915 3.41376
                CHANNELS 3 Zrotation Xrotation Yrotation
                JOINT rThumb2
                {
                  OFFSET -3.37035 -0.52449 3.41376
                  CHANNELS 3 Zrotation Xrotation Yrotation
                  End Site
                  {
                    OFFSET -1.78271 -1.18214 1.43049
                  }
                }
              }
              JOINT rIndex1
              {
                OFFSET -7.75947 0.938293 5.60832
                CHANNELS 3 Zrotation Xrotation Yrotation
                JOINT rIndex2
                {
                  OFFSET -2.54057 -0.884171 1.56538
                  CHANNELS 3 Zrotation Xrotation Yrotation
                  End Site
                  {
                    OFFSET -1.62519 -0.234802 1.16502
                  }
                }
              }
              JOINT rMid1
              {
                OFFSET -8.24714 1.18213 3.41376
                CHANNELS 3 Zrotation Xrotation Yrotation
                JOINT rMid2
                {
                  OFFSET -3.10165 -0.590103 1.0647
                  CHANNELS 3 Zrotation Xrotation Yrotation
                  End Site
                  {
                    OFFSET -2.48547 -0.328903 0.83742
                  }
                }
              }
              JOINT rRing1
              {
                OFFSET -8.82822 0.546677 1.51678
                CHANNELS 3 Zrotation Xrotation Yrotation
                JOINT rRing2
                {
                  OFFSET -2.60934 -0.819778 -0.0198488
                  CHANNELS 3 Zrotation Xrotation Yrotation
                  End Site
                  {
                    OFFSET -2.33842 -0.294052 0.168128
                  }
                }
              }
              JOINT rPinky1
              {
                OFFSET -8.27202 -0.0477905 -0.4584
                CHANNELS 3 Zrotation Xrotation Yrotation
                JOINT rPinky2
                {
                  OFFSET -1.82734 -0.647385 -0.700984
                  CHANNELS 3 Zrotation Xrotation Yrotation
                  End Site
                  {
                    OFFSET -1.69225 -0.51767 -0.607171
                  }
                }
              }
            }
          }
        }
      }
      JOINT lCollar
      {
        OFFSET 2.68224 19.2634 -4.8768
        CHANNELS 3 Zrotation Xrotation Yrotation
        JOINT lShldr
        {
          OFFSET 8.77824 -1.95073 1.46304
          CHANNELS 3 Zrotation Xrotation Yrotation
          JOINT lForeArm
          {
            OFFSET 28.1742 -1.7115 0.48768
            CHANNELS 3 Zrotation Xrotation Yrotation
            JOINT lHand
            {
              OFFSET 22.5879 0.773209 7.07136
              CHANNELS 3 Zrotation Xrotation Yrotation
              JOINT lThumb1
              {
                OFFSET 1.2192 -0.487915 3.41376
                CHANNELS 3 Zrotation Xrotation Yrotation
                JOINT lThumb2
                {
                  OFFSET 3.37035 -0.52449 3.41376
                  CHANNELS 3 Zrotation Xrotation Yrotation
                  End Site
                  {
                    OFFSET 1.78271 -1.18214 1.43049
                  }
                }
              }
              JOINT lIndex1
              {
                OFFSET 7.75947 0.938293 5.60832
                CHANNELS 3 Zrotation Xrotation Yrotation
                JOINT lIndex2
                {
                  OFFSET 2.54057 -0.884171 1.56538
                  CHANNELS 3 Zrotation Xrotation Yrotation
                  End Site
                  {
                    OFFSET 1.62519 -0.234802 1.16502
                  }
                }
              }
              JOINT lMid1
              {
                OFFSET 8.24714 1.18213 3.41376
                CHANNELS 3 Zrotation Xrotation Yrotation
                JOINT lMid2
                {
                  OFFSET 3.10165 -0.590103 1.0647
                  CHANNELS 3 Zrotation Xrotation Yrotation
                  End Site
                  {
                    OFFSET 2.48547 -0.328903 0.83742
                  }
                }
              }
              JOINT lRing1
              {
                OFFSET 8.82822 0.546677 1.51678
                CHANNELS 3 Zrotation Xrotation Yrotation
                JOINT lRing2
                {
                  OFFSET 2.60934 -0.819778 -0.0198488
                  CHANNELS 3 Zrotation Xrotation Yrotation
                  End Site
                  {
                    OFFSET 2.33842 -0.294052 0.168128
                  }
                }
              }
              JOINT lPinky1
              {
                OFFSET 8.27202 -0.0477905 -0.4584
                CHANNELS 3 Zrotation Xrotation Yrotation
                JOINT lPinky2
                {
                  OFFSET 1.82734 -0.647385 -0.700984
                  CHANNELS 3 Zrotation Xrotation Yrotation
                  End Site
                  {
                    OFFSET 1.69225 -0.51767 -0.607171
                  }
                }
              }
            }
          }
        }
      }
    }
  }
  JOINT rButtock
  {
    OFFSET -8.77824 4.35084 1.2192
    CHANNELS 3 Zrotation Xrotation Yrotation
    JOINT rThigh
    {
      OFFSET 0 -1.70687 -2.19456
      CHANNELS 3 Zrotation Xrotation Yrotation
      JOINT rShin
      {
        OFFSET 0 -36.8199 0.73152
        CHANNELS 3 Zrotation Xrotation Yrotation
        JOINT rFoot
        {
          OFFSET 0.73152 -45.1104 -5.12064
          CHANNELS 3 Zrotation Xrotation Yrotation
          End Site
          {
            OFFSET -1.1221 -3.69964 12.103
          }
        }
      }
    }
  }
  JOINT lButtock
  {
    OFFSET 8.77824 4.35084 1.2192
    CHANNELS 3 Zrotation Xrotation Yrotation
    JOINT lThigh
    {
      OFFSET 0 -1.70687 -2.19456
      CHANNELS 3 Zrotation Xrotation Yrotation
      JOINT lShin
      {
        OFFSET 0 -36.8199 0.73152
        CHANNELS 3 Zrotation Xrotation Yrotation
        JOINT lFoot
        {
          OFFSET -0.73152 -45.1104 -5.12064
          CHANNELS 3 Zrotation Xrotation Yrotation
          End Site
          {
            OFFSET 1.1221 -3.69964 12.103
          }
        }
      }
    }
  }
}
MOTION
Frames:	4
Frame Time:	0.03333
-103.1641 74.17859999999999 -78.8314 -178.338121 33.706675 -175.598957 5.106431 -4.410907 180.0 -0.079929 6.066573 -173.430338 5.348392 16.510805 113.015261 -21.571365 11.322902 -142.788293 0.00459 -0.0 -0.000561 0.004752 0.0 0.00437 -0.100264 0.595446 0.133382 91.122683 -79.748579 86.738174 117.356674 -82.733208 56.249933 168.567235 -19.234429 143.706241 -5.76256 5.575629 1.158721 -0.215299 1.265837 3.889769 -153.453038 -21.067617 121.744959 -47.199203 55.228375 32.94235 -125.644056 49.839969 115.2741 -167.2279 -17.373756 143.94809 -72.350645 72.974388 90.218306 -159.825519 -1.689079 176.468124 12.989456 44.344213 10.760401 -76.57872 -54.545613 -75.483799 -4.239305 -44.74279 8.64737 5.304576 -27.528206 -12.217495 -92.4387 -61.240859 -27.069546 177.857936 14.246828 -144.024918 -71.831058 -48.263127 -25.792583 149.001985 -7.735131 -118.991882 151.354785 -17.157965 -121.133057 112.343188 49.281832 -90.954487 153.321355 13.629087 -138.86246 176.723039 -42.244529 -142.407311 0.014519 -1.323174 0.415739 156.324712 -22.962612 -174.544527 124.851035 -29.039594 122.623003 -2.079482 -2.554924 2.453033 -0.006956 0.000537 -0.006956 -30.486244 -43.484777 -40.54695 -58.543066 72.418799 -23.358951 -155.335095 -62.354898 -53.511899 0.005565 0.000537 0.002783 15.728313 -32.782399 -180.0 55.529268 -62.011605 5.32899 170.631061 48.482833 92.323635
-103.0025 73.9725 -78.4177 -177.012487 33.173533 -173.87304 8.909649 -2.119954 -80.502029 8.360258 -3.934005 86.751819 -14.869 13.252868 -74.908985 26.596197 10.212272 40.468068 0.001969 -0.0 -0.002731 -0.001833 -0.0 0.000961 0.118168 -0.713999 -0.158325 -4.548229 25.815694 12.007143 -50.489414 45.753022 16.736886 50.876497 -63.728578 38.673332 -78.030466 38.688996 42.412891 -119.643531 -16.68252 79.231569 -43.648615 38.803188 34.060403 4.200063 3.993684 -1.74213 -36.03441 51.723522 29.832201 7.210298 -11.601154 -1.081239 0.003107 0.605786 0.189959 -156.609897 -37.885323 176.357271 -149.550474 27.153199 -145.546215 -147.960541 12.027647 -141.809585 9.652574 34.835947 -11.200077 167.084309 -12.163487 166.918703 -28.110008 -38.465988 40.55506 -179.522434 5.622544 -144.353183 176.927403 -14.532653 -89.65788 176.749221 -13.065315 -95.826128 -10.283405 -18.182194 4.58509 64.484637 48.978095 -51.291883 -68.982606 -80.154473 -40.576662 5.216063 21.256 -4.602543 145.119285 0.309757 179.226428 149.426654 -38.763815 171.997008 141.70168 1.898412 138.684682 42.38888 -48.809192 43.203344 179.988236 75.749255 0.008049 159.233374 30.862443 -43.110861 -50.964315 43.075064 142.101106 -26.20501 -11.943682 -102.566338 179.988236 75.749255 0.008049 -161.074942 40.610438 -12.291654 -47.961851 68.092939 -149.40799 148.467948 23.937182 133.759262
-103.0073 73.2576 -78.2861 -176.634404 32.96831 -172.560106 4.549146 -4.324116 121.959602 -6.616396 2.704099 -117.160454 -11.698368 21.414007 -125.178676 20.999126 30.167964 87.244203 0.002949 0.0 0.001814 -0.002479 -0.0 0.003055 -159.220151 -48.028395 170.41577 -161.054169 -3.292946 162.80475 -39.152064 19.376802 4.597972 30.972515 -58.778242 18.801098 -0.543257 0.536501 0.086016 -122.82549 -14.552899 110.178114 -148.886568 -12.609333 120.245462 12.067449 -2.694938 -10.123536 -36.036432 51.722862 29.832785 -34.335433 55.12046 29.134028 0.006092 1.770519 0.555709 9.559666 -62.554797 -9.18665 -45.219028 -48.150155 -43.994373 -145.910417 9.91855 -142.697543 155.417353 -2.951668 -161.717824 -0.835137 43.938365 -40.941748 7.250265 -60.999759 67.565565 -166.736977 -30.246911 -141.341756 5.433501 5.265125 -1.077 75.417221 23.32968 -70.248431 -16.9657 -30.494115 5.90146 157.941351 -13.501663 -111.385161 15.422295 32.962035 -11.294752 34.315039 55.152246 -29.04226 71.926605 72.974468 -89.771645 152.066656 62.472961 -162.749738 114.972866 -38.44763 112.961489 -17.306474 43.700684 -6.750822 0.006385 0.002088 0.003193 -24.471329 -40.288468 -35.139036 -31.172484 58.487735 -57.478969 -9.840959 -62.671188 80.20324 -0.001488 0.001416 -0.000744 18.712799 -37.109914 180.0 58.728876 -51.197072 166.939237 29.061595 -16.681924 90.460323
-102.9565 73.1375 -78.1913 -176.377812 33.655965 -172.141835 8.674606 -3.749659 -102.51065 8.131066 -1.534803 107.120226 -13.973033 20.390247 -98.346152 32.248462 19.131928 59.709929 0.000311 -0.0 -0.00032 0.000311 -0.0 -0.00032 4.239229 -44.74273 -8.648176 13.795089 -43.911642 13.10943 111.255511 -84.436924 46.045014 175.40086 -11.721667 143.706623 4.417471 -4.400385 -0.512416 -113.820978 2.164491 103.20642 -148.886379 -12.609945 120.244261 3.952349 13.275127 -7.24624 -169.087609 -33.247453 145.376489 -170.358886 -25.725546 143.911476 -0.015411 -1.32329 -0.414958 -155.303856 -1.114116 171.983706 -43.361145 -47.547581 -42.161402 -165.853848 69.748082 -147.525153 130.419455 54.548667 -134.286693 135.660563 -26.301516 178.598893 6.296318 47.170962 -33.911608 4.553494 11.483424 0.332247 0.441514 0.435325 -0.069267 85.684735 22.097027 -78.546187 0.045141 0.071024 -0.026704 160.945868 -12.870808 -110.129691 145.289421 29.52464 -132.692405 167.301618 -17.373757 -143.877321 0.059047 -3.429928 1.078844 -6.432075 33.733251 -5.575445 -12.988363 44.344271 -10.762109 148.456771 12.725168 143.597796 -179.999394 75.751389 -0.000625 158.234204 27.68543 -88.260281 -62.061387 -5.631328 35.71336 -10.271254 -17.934827 42.052078 179.996888 75.749644 0.002129 -159.731503 35.914742 -67.243233 -67.734212 21.316682 122.601266 126.697612 -33.721457 14.181445
